<?xml version="1.0" encoding="utf-8"?>
<!-- Generator: Adobe Illustrator 24.0.1, SVG Export Plug-In . SVG Version: 6.00 Build 0)  -->
<svg version="1.1" id="Warstwa_1" xmlns="http://www.w3.org/2000/svg" xmlns:xlink="http://www.w3.org/1999/xlink" x="0px" y="0px"
	 viewBox="0 0 61 16.5" style="enable-background:new 0 0 61 16.5;" xml:space="preserve">
<style type="text/css">
	.st0{fill:#FFFFFF;}
</style>
<path class="st0" d="M2.3,3.3l-1.8,10h3.1l1.8-10L2.3,3.3z M22.4,4c-0.7-0.6-1.6-0.9-2.5-0.8c-0.7,0-1.4,0.2-2.1,0.5
	C17.2,4,16.6,4.5,16.2,5C15.9,4.5,15.5,4,15,3.7c-0.6-0.3-1.3-0.5-1.9-0.5c-0.6,0-1.2,0.1-1.8,0.4c-0.5,0.2-1,0.6-1.4,1l0.2-1.3h-3
	l-1.8,10h3.1l1-5.5v0.1c0.1-0.6,0.3-1.1,0.8-1.5c0.4-0.4,1-0.5,1.5-0.5c0.4,0,0.9,0.1,1.2,0.4c0.3,0.3,0.4,0.7,0.4,1.1
	c0,0.2,0,0.4,0,0.5l-1,5.4h3l1-5.4c0.1-0.5,0.3-1.1,0.7-1.4c0.4-0.4,1-0.5,1.5-0.5c0.4,0,0.9,0.1,1.2,0.4C20,6.6,20.1,7,20.1,7.4
	c0,0.2,0,0.3,0,0.5l-1,5.4h3l1-5.9c0.1-0.3,0.1-0.7,0.1-1C23.3,5.6,23,4.7,22.4,4z M34,4.2c-0.7-0.7-1.6-1.1-2.6-1.1
	c-0.7,0-1.3,0.1-1.9,0.4c-0.6,0.3-1.1,0.7-1.5,1.1l0.3-1.4h-3.1l-2.3,13.3l3.4-1.9l0.5-2.8c0.2,0.5,0.6,0.9,1.1,1.1
	c0.2,0.2,0.5,0.3,0.8,0.3l5.7-3.2c0.3-0.6,0.5-1.2,0.6-1.8C35,7.9,35,7.5,35,7.1C35,6,34.7,5,34,4.2z M31.7,8.3
	c-0.1,0.7-0.5,1.3-1,1.8c-0.5,0.4-1.1,0.7-1.7,0.7c-0.5,0-0.9-0.2-1.3-0.5c-0.3-0.4-0.5-0.9-0.5-1.4c0-0.2,0-0.4,0-0.6
	c0.1-0.7,0.5-1.3,1-1.8C28.8,6,29.4,5.8,30,5.8c0.5,0,0.9,0.2,1.3,0.5c0.4,0.4,0.6,0.9,0.5,1.4C31.8,7.9,31.8,8.1,31.7,8.3z
	 M43.5,4.9l-0.7,4c-0.1,0.5-0.4,1-0.8,1.4c-0.4,0.3-0.9,0.5-1.5,0.5c-0.4,0-0.8-0.1-1.2-0.4C39.1,10.1,39,9.7,39,9.2
	c0-0.2,0-0.4,0-0.6l0.3-1.4l-3.4,1.9c-0.1,0.3-0.1,0.6-0.1,0.9c0,0.9,0.3,1.7,0.9,2.4c0.6,0.6,1.5,0.9,2.3,0.8
	c0.6,0,1.2-0.1,1.8-0.4c0.5-0.3,1-0.6,1.4-1.1L42,13.3h3.1L46.9,3L43.5,4.9z M48.8,1.9l-2,11.4h3.1L52.2,0L48.8,1.9z M56,5.5
	c0.3-0.2,0.5-0.2,0.8-0.2c0.4,0,0.7,0.1,1,0.3c0.2,0.2,0.4,0.5,0.3,0.9H61V6.2c0-0.6-0.2-1.1-0.5-1.6c-0.4-0.5-0.9-0.9-1.4-1.1
	c-0.7-0.3-1.4-0.4-2.1-0.4c-0.7,0-1.5,0.1-2.2,0.4c-0.6,0.2-1.1,0.6-1.5,1.1c-0.4,0.5-0.5,1-0.5,1.6c0,0.5,0.1,1.1,0.5,1.5
	c0.3,0.4,0.7,0.7,1.1,0.9c0.5,0.2,1,0.4,1.6,0.6c0.5,0.2,0.9,0.3,1.3,0.5c0.2,0.1,0.4,0.3,0.4,0.6c0,0.3-0.1,0.5-0.4,0.6
	c-0.3,0.2-0.6,0.2-0.9,0.2c-0.4,0-0.7-0.1-1-0.3c-0.2-0.2-0.4-0.6-0.3-0.9h-3c0,0.2,0,0.4,0,0.4c0,0.6,0.2,1.1,0.5,1.5
	c0.4,0.5,0.9,0.8,1.5,1c0.7,0.3,1.4,0.4,2.1,0.4c0.8,0,1.6-0.1,2.3-0.4c0.6-0.2,1.2-0.5,1.6-1c0.4-0.5,0.6-1.1,0.6-1.7
	c0-0.5-0.1-1-0.4-1.4c-0.3-0.4-0.7-0.7-1.1-0.9c-0.4-0.2-1-0.4-1.6-0.7c-0.5-0.2-0.9-0.4-1.4-0.6c-0.3-0.1-0.4-0.4-0.5-0.6
	C55.7,6,55.8,5.7,56,5.5z"/>
</svg>
